<svg xmlns="http://www.w3.org/2000/svg" viewBox="0 0 265.81 57.95"><defs><style>.cls-1{fill:#58595b;}.cls-2{fill:#eba900;}</style></defs><title>scopeAR</title><g id="Layer_2" data-name="Layer 2"><g id="Layer_2-2" data-name="Layer 2"><path class="cls-1" d="M89.31,20.2a.48.48,0,0,1-.61-.15,9.64,9.64,0,0,0-7.52-3.3c-4.57,0-6.77,1.92-6.77,4.34,0,2.85,3.36,3.65,7.29,4.11,6.17.77,12,2.29,13,8.37A10.74,10.74,0,0,1,85,45.83c-8.37.81-14.95-.69-17.92-7.42a.49.49,0,0,1,.22-.62l4.3-2.23a.48.48,0,0,1,.64.23c1.58,3.28,5.2,4.73,9,4.73s7.52-1.36,7.52-4.9c0-3.09-3.23-4.35-7.57-4.81-6.68-.8-12.84-2.57-12.84-9.9,0-6.73,6.63-9.48,12.66-9.53,4.94,0,10,1.37,12.61,6.06a.48.48,0,0,1-.2.65Z"/><path class="cls-1" d="M129.56,40.73a.49.49,0,0,1,0,.69,17.3,17.3,0,0,1-12.07,4.51c-12.14,0-17.28-8.35-17.32-16.85s5.51-17.23,17.32-17.23a16.8,16.8,0,0,1,11.64,4.65.47.47,0,0,1,0,.69l-3.43,3.32a.47.47,0,0,1-.64,0,11.31,11.31,0,0,0-7.57-2.78c-7.89,0-11.3,5.89-11.25,11.35s3.17,11.07,11.25,11.07a12.16,12.16,0,0,0,7.89-3,.46.46,0,0,1,.65,0Z"/><path class="cls-1" d="M188.11,35.57h-8.69a.56.56,0,0,0-.56.56v6.93a1.67,1.67,0,0,1-.91,1.49l-3.61,1.89a1.12,1.12,0,0,1-1.64-1V13.06a.56.56,0,0,1,.56-.56c5,0,9.9,0,14.85,0C204.07,12.46,204.12,35.57,188.11,35.57Zm-9.25-6.21a.56.56,0,0,0,.56.56h8.69c7.89,0,7.84-11.58,0-11.58h-8.69a.56.56,0,0,0-.56.56Z"/><path class="cls-1" d="M230.36,45.19H206.84a.47.47,0,0,1-.47-.48V13a.48.48,0,0,1,.47-.48h23.52a.48.48,0,0,1,.47.48v5a.47.47,0,0,1-.47.47H213a.47.47,0,0,0-.48.47v6.57A.47.47,0,0,0,213,26h16.75a.47.47,0,0,1,.47.47v4.8a.47.47,0,0,1-.47.47H213a.47.47,0,0,0-.48.47v6.43a.47.47,0,0,0,.48.48h17.4a.47.47,0,0,1,.47.47v5.12A.47.47,0,0,1,230.36,45.19Z"/><path class="cls-1" d="M166.7,29v-.28c0-7.23-3.78-14.21-11.82-16.25v0a19.14,19.14,0,0,0-4.94-.62,18.57,18.57,0,0,0-5.34.75c-7.29,2-10.91,8.3-11.4,14.85a.76.76,0,0,0,0,.15c0,.4-.05.8-.06,1.19,0,.05,0,.09,0,.13s0,.11,0,.16c0,7.23,3.79,14.21,11.82,16.24v0a19.13,19.13,0,0,0,4.94.63,18.92,18.92,0,0,0,5.34-.75c7.3-2,10.91-8.31,11.41-14.86v-.15C166.67,29.82,166.7,29.43,166.7,29Zm-6.08.24c0,.28,0,.56,0,.84v.05c0,.31-.07.62-.11.94l0,.15c0,.25-.09.5-.14.75l-.15.6a2.68,2.68,0,0,0-.07.27,10.34,10.34,0,0,1-4.53,6.05,11.11,11.11,0,0,1-5.61,1.36,10.29,10.29,0,0,1-7.44-2.7,10.5,10.5,0,0,1-2.06-2.93l0-.09c-.14-.3-.26-.61-.38-.92,0-.09-.07-.18-.1-.28s-.14-.46-.21-.69-.09-.32-.13-.48v0a19.73,19.73,0,0,1-.32-2h0c0-.2,0-.39,0-.59s0-.46,0-.69,0-.2,0-.3c0-.28,0-.56,0-.84v-.05c0-.31.07-.62.11-.93l0-.15c0-.25.09-.5.14-.75l.15-.61a2.5,2.5,0,0,0,.07-.26,10.35,10.35,0,0,1,4.53-6.05,11.13,11.13,0,0,1,5.61-1.37,10.29,10.29,0,0,1,7.44,2.71,10.5,10.5,0,0,1,2.06,2.93l0,.09c.14.3.26.6.38.92l.1.27c.08.23.14.46.21.69s.09.32.13.48v0a13.79,13.79,0,0,1,.3,1.8l0,.25,0,.58c0,.23,0,.47,0,.7S160.63,29.17,160.62,29.27Z"/><path class="cls-2" d="M257.37,21.53a.33.33,0,0,0,.21-.31V19.88a.35.35,0,0,0-.21-.32l-15.91-7.13a.35.35,0,0,0-.33,0,.34.34,0,0,0-.16.29v1.32a.34.34,0,0,0,.21.31l3.7,1.64v9.06l-3.7,1.66A.33.33,0,0,0,241,27v1.32a.34.34,0,0,0,.49.31Zm-10.66-4.74,8.49,3.75-8.49,3.74Z"/><path class="cls-2" d="M240.68,28.36V27a.64.64,0,0,1,.38-.58l3.53-1.58V16.2l-3.53-1.56a.64.64,0,0,1-.38-.58V12.74a.62.62,0,0,1,.29-.53.63.63,0,0,1,.61-.05l15.91,7.14a.64.64,0,0,1,.38.58v1.34a.65.65,0,0,1-.38.58h0l-15.91,7.14a.64.64,0,0,1-.9-.58ZM245.17,16v9.06a.27.27,0,0,1-.17.26L241.3,27l0,1.37.2.31-.12-.26,15.91-7.14a.07.07,0,0,0,0-.05V19.88l-16-7.19-.08.05v1.32L245,15.75A.27.27,0,0,1,245.17,16Zm1.25,8.27V16.79a.29.29,0,0,1,.41-.26l8.48,3.74a.29.29,0,0,1,.18.27h0a.28.28,0,0,1-.18.26l-8.48,3.75a.31.31,0,0,1-.28,0A.31.31,0,0,1,246.42,24.28Zm.58-7v6.6l7.48-3.3Z"/><path class="cls-2" d="M241.55,45.74l5.55-5.12A5.36,5.36,0,0,0,248.58,44a5.12,5.12,0,0,0,3.7,1.42,5.25,5.25,0,0,0,5.3-5.58v-7a.35.35,0,0,0-.35-.34H241.32a.35.35,0,0,0-.35.34V34a.35.35,0,0,0,.35.34H247v3.85l-5.91,5.4a.32.32,0,0,0-.12.25v1.62a.35.35,0,0,0,.58.25Zm7.3-6.07v-5.3h6.9V39.8a3.54,3.54,0,0,1-1,2.59,3.48,3.48,0,0,1-2.47,1C250.73,43.33,248.85,42.68,248.85,39.67Z"/><path class="cls-2" d="M240.68,45.49V43.87a.66.66,0,0,1,.21-.47l5.82-5.31V34.66h-5.39a.64.64,0,0,1-.64-.63V32.8a.64.64,0,0,1,.64-.63h15.91a.64.64,0,0,1,.64.63v7a5.52,5.52,0,0,1-5.59,5.87,5.2,5.2,0,0,1-5.39-4.46L241.75,46a.65.65,0,0,1-.69.12A.64.64,0,0,1,240.68,45.49Zm6.61-11.12v3.85a.28.28,0,0,1-.1.21l-5.91,5.4,0,1.66.09,0,5.56-5.12a.28.28,0,0,1,.3-.06.28.28,0,0,1,.18.24,5.09,5.09,0,0,0,1.4,3.17,4.82,4.82,0,0,0,3.49,1.33,5,5,0,0,0,5-5.29v-7a.06.06,0,0,0-.06,0H241.32a.06.06,0,0,0-.06,0V34a.06.06,0,0,0,.06,0H247A.29.29,0,0,1,247.29,34.37Zm1.27,5.3v-5.3a.29.29,0,0,1,.29-.29h6.9a.29.29,0,0,1,.29.29V39.8A3.82,3.82,0,0,1,255,42.6a3.76,3.76,0,0,1-2.67,1C249.89,43.61,248.56,42.2,248.56,39.67Zm.58-5v5c0,2.22,1.06,3.36,3.17,3.39a3.21,3.21,0,0,0,2.26-.87,3.29,3.29,0,0,0,.89-2.39V34.66Z"/><path class="cls-2" d="M50.05,15.42a1.36,1.36,0,0,0-.67-1.16L25.52.13a.93.93,0,0,0-.94,0L.64,14.18A1.3,1.3,0,0,0,0,15.3V42.78a1,1,0,0,0,.47.81S20.21,55.16,24.66,57.72a1.72,1.72,0,0,0,1.74,0L49.63,43.87a1,1,0,0,0,.48-.83ZM23.24,52.25a.32.32,0,0,1-.26,0L4.13,41.32a.56.56,0,0,1-.35-.52l0-21.42a.3.3,0,0,1,.44-.26L8.4,21.56A1.27,1.27,0,0,1,9,22.67L9.1,38a.94.94,0,0,0,.47.81l7.94,4.64a.89.89,0,0,0,.94,0,.92.92,0,0,0,.46-.82l0-2.19a.94.94,0,0,0-.47-.8L13,36.36a.24.24,0,0,1-.14-.21l0-11.48a.28.28,0,0,1,.11-.21.29.29,0,0,1,.26,0L22.94,30a.77.77,0,0,1,.3.56L23.35,52A.29.29,0,0,1,23.24,52.25Zm2.27-25.6a.78.78,0,0,1-.69,0l-19.1-11a.25.25,0,0,1,0-.43l19-10.8a.68.68,0,0,1,.69,0L35,10.13l8.79,5.24a.31.31,0,0,1,0,.54l-3.91,2.3a1.49,1.49,0,0,1-1.46,0L25.55,10.85a1,1,0,0,0-.95,0L16.84,15.6a.93.93,0,0,0,0,1.62l1.87,1.09a1,1,0,0,0,.95,0L25,15a.28.28,0,0,1,.25,0L35,20.61a.26.26,0,0,1,.13.21.25.25,0,0,1-.12.22Zm20.43,15L27.54,52.77a.27.27,0,0,1-.4-.23l0-5.42a.91.91,0,0,1,.45-.79l13.22-7.69a.94.94,0,0,0,.47-.81l0-8.89a.94.94,0,0,0-1.42-.8l-1.89,1.11a1,1,0,0,0-.46.81l0,6a.22.22,0,0,1-.12.21L27.46,42a.24.24,0,0,1-.25,0,.22.22,0,0,1-.12-.21V30.73a.74.74,0,0,1,.38-.75l14.09-8.37a.49.49,0,0,0,.13-.1L45.88,19a.22.22,0,0,1,.24,0,.23.23,0,0,1,.13.21l.08,21.8A.74.74,0,0,1,45.94,41.65Z"/><path class="cls-2" d="M265.81,43.38a3.2,3.2,0,1,1-3.2-3.12A3.13,3.13,0,0,1,265.81,43.38Zm-5.61,0a2.42,2.42,0,0,0,2.43,2.49A2.39,2.39,0,0,0,265,43.4a2.41,2.41,0,1,0-4.81,0ZM262.12,45h-.72V41.9a6,6,0,0,1,1.2-.1,2,2,0,0,1,1.08.23.86.86,0,0,1,.3.68.8.8,0,0,1-.64.73v0a1,1,0,0,1,.57.76,2.09,2.09,0,0,0,.23.78h-.78a2.34,2.34,0,0,1-.25-.76c-.06-.34-.25-.49-.65-.49h-.34Zm0-1.76h.34c.4,0,.72-.14.72-.46s-.21-.47-.66-.47a1.83,1.83,0,0,0-.4,0Z"/></g></g></svg>